<svg width="74" height="74" viewBox="0 0 74 74" fill="none" xmlns="http://www.w3.org/2000/svg">
<circle cx="37" cy="37" r="37" fill="#EAE112"/>
<g clip-path="url(#clip0_53_442)">
<path fill-rule="evenodd" clip-rule="evenodd" d="M18.1451 13.9091C18.6846 13.3704 19.3324 12.9526 20.0456 12.6832C20.7589 12.4138 21.5212 12.299 22.2821 12.3466C23.043 12.3941 23.7852 12.6028 24.4593 12.9588C25.1335 13.3148 25.7243 13.8101 26.1926 14.4117L31.7272 21.5219C32.7416 22.8261 33.0992 24.525 32.6984 26.1284L31.0118 32.8809C30.9252 33.2307 30.9303 33.5968 31.0264 33.9441C31.1225 34.2914 31.3065 34.608 31.5607 34.8635L39.1364 42.4392C39.3922 42.6939 39.7093 42.8782 40.0572 42.9743C40.4051 43.0705 40.7719 43.0752 41.1221 42.9881L47.8715 41.3015C48.6628 41.1048 49.4884 41.09 50.2863 41.2582C51.0841 41.4264 51.8335 41.7733 52.478 42.2727L59.5882 47.8042C62.1443 49.793 62.3786 53.57 60.0908 55.8548L56.9026 59.043C54.6209 61.3246 51.2108 62.3267 48.0318 61.2075C39.8939 58.3479 32.5058 53.6895 26.4177 47.5791C20.3076 41.4919 15.6493 34.1049 12.7893 25.968C11.6732 22.7922 12.6752 19.379 14.9569 17.0973L18.1451 13.9091Z" fill="black"/>
</g>
<defs>
<clipPath id="clip0_53_442">
<rect width="49.3333" height="49.3333" fill="white" transform="translate(12.3335 12.3333)"/>
</clipPath>
</defs>
</svg>
